<?xml version="1.0" standalone="no"?>
<!DOCTYPE svg PUBLIC "-//W3C//DTD SVG 20010904//EN"
 "http://www.w3.org/TR/2001/REC-SVG-20010904/DTD/svg10.dtd">
<svg version="1.0" xmlns="http://www.w3.org/2000/svg"
 width="500.000000pt" height="500.000000pt" viewBox="0 0 500.000000 500.000000"
 preserveAspectRatio="xMidYMid meet">

<g transform="translate(0.000000,500.000000) scale(0.100000,-0.100000)"
fill="#000000" stroke="none">
<path d="M3346 4605 c-13 -14 -28 -57 -84 -245 -17 -60 -30 -82 -42 -75 -5 3
-23 49 -41 103 -43 132 -54 152 -84 152 -36 0 -38 -24 -10 -144 23 -104 24
-126 6 -126 -4 0 -43 32 -85 71 -84 76 -118 87 -124 39 -2 -21 14 -42 84 -109
50 -49 82 -87 77 -92 -5 -5 -63 2 -141 19 -125 25 -132 26 -149 10 -12 -13
-14 -21 -6 -29 6 -6 75 -29 154 -52 94 -28 144 -47 144 -56 0 -8 -49 -29 -134
-56 -138 -45 -168 -62 -158 -89 9 -24 48 -20 188 21 71 20 132 34 136 30 4 -4
-45 -60 -109 -125 -63 -64 -122 -128 -131 -141 -19 -29 -12 -51 17 -51 24 0
180 133 239 204 21 25 42 46 47 46 16 0 12 -66 -11 -183 -24 -130 -23 -161 8
-165 29 -4 39 19 64 163 26 148 28 155 39 155 5 0 38 -60 73 -132 36 -73 74
-142 86 -152 20 -19 23 -19 39 -2 16 16 15 22 -17 109 -58 159 -54 169 33 82
54 -55 91 -69 102 -40 8 20 -8 42 -106 150 -62 67 -78 91 -66 93 10 2 77 -14
149 -37 73 -22 146 -41 162 -43 26 -3 30 1 33 24 3 26 0 28 -142 73 -129 41
-167 58 -155 70 2 2 60 20 129 40 131 38 157 52 146 80 -7 20 -54 16 -170 -16
-39 -11 -91 -23 -116 -26 l-45 -6 93 98 c88 94 110 133 82 150 -14 9 -30 -2
-119 -83 -44 -39 -84 -72 -90 -72 -17 0 -14 23 25 192 20 87 34 164 31 173 -8
19 -31 19 -51 0z"/>
<path d="M2183 4583 c-14 -3 -23 -12 -23 -24 0 -22 14 -26 120 -33 106 -8 278
-42 388 -78 94 -31 120 -29 107 4 -22 56 -477 156 -592 131z"/>
<path d="M1944 4561 c-17 -4 -36 -11 -42 -15 -17 -10 -15 -33 4 -40 17 -7 143
22 159 36 25 23 -52 35 -121 19z"/>
<path d="M1691 4484 c-63 -17 -196 -85 -247 -127 -26 -22 -32 -32 -24 -42 14
-17 49 -7 118 34 29 17 100 53 157 80 58 27 105 54 105 60 0 15 -44 13 -109
-5z"/>
<path d="M2458 4359 c-9 -5 -36 -8 -60 -7 -34 2 -43 -1 -46 -15 -3 -15 3 -18
45 -17 26 1 65 -2 85 -5 80 -15 123 24 51 44 -46 13 -53 13 -75 0z"/>
<path d="M2231 4336 c-10 -12 -8 -17 6 -25 24 -12 48 2 40 23 -8 20 -31 21
-46 2z"/>
<path d="M2653 4343 c-20 -7 -15 -31 7 -43 27 -14 102 -9 108 7 6 19 -87 48
-115 36z"/>
<path d="M2065 4304 c-23 -23 -13 -39 24 -38 36 2 85 30 76 44 -10 16 -82 11
-100 -6z"/>
<path d="M1300 4262 c-36 -16 -62 -41 -58 -58 5 -28 22 -27 64 7 52 41 62 59
32 58 -13 0 -30 -3 -38 -7z"/>
<path d="M1953 4263 c-17 -6 -16 -43 1 -43 18 0 39 27 31 40 -7 11 -13 11 -32
3z"/>
<path d="M2530 4230 c-82 -11 -190 -46 -329 -106 -126 -54 -161 -76 -161 -101
0 -30 36 -23 141 26 154 72 277 111 380 121 49 5 93 11 99 15 12 7 13 32 2 39
-17 10 -81 13 -132 6z"/>
<path d="M1856 4214 c-13 -12 -14 -20 -6 -28 13 -13 45 4 45 24 0 21 -21 23
-39 4z"/>
<path d="M1709 4142 c-24 -21 -21 -52 6 -52 18 0 65 43 65 60 0 17 -46 11 -71
-8z"/>
<path d="M1120 4119 c-43 -27 -113 -88 -141 -123 -17 -21 -18 -30 -9 -41 10
-13 16 -13 41 0 34 18 149 149 149 170 0 19 2 19 -40 -6z"/>
<path d="M2625 4120 c-4 -7 -3 -16 3 -22 14 -14 57 -6 57 12 0 18 -50 26 -60
10z"/>
<path d="M2480 4093 c-24 -9 -50 -35 -50 -51 0 -19 66 -10 88 12 28 28 2 54
-38 39z"/>
<path d="M1569 4036 c-68 -46 -111 -127 -67 -126 22 1 138 118 138 140 0 18
-35 11 -71 -14z"/>
<path d="M2322 4014 c-29 -20 -28 -44 1 -44 26 0 70 36 62 51 -9 14 -38 11
-63 -7z"/>
<path d="M1892 3933 c-57 -43 -167 -162 -212 -230 -30 -47 -38 -77 -21 -87 13
-8 36 15 153 154 58 69 115 134 128 145 68 61 29 76 -48 18z"/>
<path d="M2198 3939 c-10 -5 -18 -19 -18 -29 0 -23 26 -26 53 -6 39 30 8 61
-35 35z"/>
<path d="M1405 3854 c-12 -12 -13 -20 -5 -28 13 -13 44 4 48 28 4 21 -22 21
-43 0z"/>
<path d="M789 3768 c-162 -208 -255 -381 -330 -612 -62 -189 -91 -327 -87
-420 2 -57 6 -71 20 -74 19 -4 38 49 38 106 0 105 95 428 173 592 25 52 91
166 146 253 93 145 141 228 141 242 0 3 -7 5 -15 5 -8 0 -47 -42 -86 -92z"/>
<path d="M2084 3838 c-23 -10 -49 -56 -39 -67 8 -8 56 20 69 41 15 24 -3 39
-30 26z"/>
<path d="M1327 3762 c-20 -21 -22 -38 -6 -47 14 -9 49 24 49 47 0 23 -22 23
-43 0z"/>
<path d="M1938 3683 c-37 -42 -26 -88 13 -59 17 12 39 49 39 65 0 17 -35 13
-52 -6z"/>
<path d="M1220 3599 c-33 -47 -36 -74 -6 -74 24 0 54 41 58 79 5 44 -18 42
-52 -5z"/>
<path d="M1826 3521 c-9 -10 -20 -35 -23 -56 -5 -32 -4 -37 13 -33 21 4 69 82
59 98 -10 16 -30 12 -49 -9z"/>
<path d="M1572 3493 c-53 -75 -127 -277 -139 -377 -5 -43 -4 -48 13 -44 10 2
24 14 30 28 16 33 134 392 134 408 0 20 -18 13 -38 -15z"/>
<path d="M1136 3424 c-19 -19 -21 -54 -3 -54 18 0 37 21 37 41 0 26 -16 32
-34 13z"/>
<path d="M1737 3332 c-18 -20 -24 -92 -7 -92 6 0 19 15 30 33 33 52 14 100
-23 59z"/>
<path d="M1068 3266 c-11 -26 -5 -56 12 -56 15 0 34 46 27 64 -9 23 -26 19
-39 -8z"/>
<path d="M3400 3100 l0 -190 44 0 44 0 4 90 c2 69 7 93 21 107 13 14 21 15 35
7 14 -9 18 -29 20 -108 l3 -96 49 0 50 0 0 88 c0 113 -13 158 -50 177 -40 21
-72 19 -104 -6 l-26 -20 0 70 0 71 -45 0 -45 0 0 -190z"/>
<path d="M1953 3263 c-41 -8 -73 -48 -73 -93 0 -58 13 -76 80 -110 69 -35 78
-46 56 -68 -13 -13 -23 -14 -63 -5 -27 5 -56 13 -65 18 -16 6 -18 1 -18 -34 0
-35 4 -43 26 -51 14 -6 51 -10 82 -10 89 0 142 43 142 114 0 34 -35 73 -91
102 -92 46 -77 78 27 60 35 -6 42 -5 47 11 2 10 8 25 11 34 11 27 -88 46 -161
32z"/>
<path d="M3176 3260 c-67 -21 -106 -85 -106 -177 0 -111 57 -173 159 -173 90
0 101 6 101 52 0 33 -3 39 -16 34 -9 -3 -33 -9 -53 -12 -31 -5 -43 -1 -66 19
-25 21 -29 32 -29 79 -1 76 21 108 75 108 22 0 49 -4 59 -10 15 -8 20 -5 29
22 16 44 15 46 -26 57 -44 13 -87 13 -127 1z"/>
<path d="M2206 3212 c-8 -15 -23 -36 -35 -46 -26 -24 -27 -42 -1 -49 18 -5 20
-14 20 -86 0 -99 15 -121 84 -121 64 0 76 7 76 44 0 29 -3 31 -32 31 l-33 0
-3 68 -3 67 36 0 c32 0 35 2 35 30 0 28 -3 30 -35 30 -32 0 -35 2 -35 30 0 27
-3 30 -30 30 -22 0 -33 -7 -44 -28z"/>
<path d="M4079 3211 c-6 -16 -21 -37 -35 -46 -29 -19 -31 -41 -4 -48 18 -5 20
-14 20 -86 0 -99 15 -121 84 -121 64 0 76 7 76 44 0 29 -3 31 -32 31 l-33 0
-3 68 -3 67 36 0 c32 0 35 2 35 29 0 26 -4 30 -32 33 -28 2 -34 8 -36 31 -3
23 -8 27 -33 27 -24 0 -32 -6 -40 -29z"/>
<path d="M2453 3179 c-34 -10 -40 -23 -23 -49 6 -10 26 -15 62 -15 42 0 53 -3
56 -17 3 -15 -4 -18 -43 -18 -51 0 -99 -20 -109 -45 -13 -34 -6 -85 14 -105
25 -25 96 -27 129 -4 22 16 24 16 33 0 5 -9 22 -16 38 -16 l30 0 0 113 c0 108
-1 115 -25 137 -28 27 -108 36 -162 19z m97 -167 c0 -23 -19 -42 -42 -42 -24
0 -34 26 -18 45 18 22 60 19 60 -3z"/>
<path d="M2822 3165 c-29 -24 -30 -24 -35 -5 -4 15 -14 20 -41 20 l-36 0 0
-135 0 -135 45 0 45 0 0 73 c0 89 15 117 66 117 34 0 34 0 34 45 0 41 -2 45
-24 45 -14 0 -38 -11 -54 -25z"/>
<path d="M3783 3179 c-34 -10 -40 -23 -23 -49 6 -10 26 -15 62 -15 42 0 53 -3
56 -17 3 -15 -4 -18 -43 -18 -51 0 -99 -20 -109 -45 -13 -34 -6 -85 14 -105
25 -25 96 -27 129 -4 22 16 24 16 33 0 5 -9 22 -16 38 -16 l30 0 0 113 c0 108
-1 115 -25 137 -28 27 -108 36 -162 19z m97 -167 c0 -23 -19 -42 -42 -42 -24
0 -34 26 -18 45 18 22 60 19 60 -3z"/>
<path d="M1687 3165 c-18 -17 -31 -70 -22 -85 18 -30 55 13 55 65 0 31 -14 39
-33 20z"/>
<path d="M1026 3099 c-29 -45 -47 -100 -49 -152 -2 -42 1 -52 15 -55 22 -4 32
19 54 129 18 88 9 122 -20 78z"/>
<path d="M1416 2971 c-30 -48 -68 -440 -46 -481 14 -27 38 -26 44 3 3 12 10
103 16 202 6 99 12 187 12 195 5 68 -9 109 -26 81z"/>
<path d="M1642 2957 c-20 -23 -23 -61 -8 -82 14 -17 17 -18 26 -5 12 19 13 87
1 94 -5 3 -13 0 -19 -7z"/>
<path d="M947 2773 c-10 -10 -8 -61 2 -68 12 -7 31 26 31 54 0 20 -19 28 -33
14z"/>
<path d="M3485 2736 c-12 -8 -16 -20 -12 -35 5 -21 5 -21 -211 -23 -120 -1
-196 -3 -169 -5 l47 -4 0 -41 c0 -41 0 -41 -21 -22 -19 17 -19 19 -3 24 11 4
14 9 7 13 -6 4 -23 3 -37 -3 -48 -18 -23 -77 29 -68 19 4 25 1 25 -13 0 -11 5
-19 10 -19 6 0 10 28 10 65 0 58 2 65 20 65 18 0 20 -7 20 -65 0 -37 4 -65 10
-65 6 0 10 28 10 65 l0 65 55 0 c48 0 55 -2 55 -20 0 -15 -7 -20 -29 -20 -42
0 -59 -25 -41 -58 8 -14 21 -27 28 -30 10 -3 9 3 -3 22 -22 32 -13 56 20 56
23 0 25 -4 25 -40 0 -22 5 -40 10 -40 6 0 10 28 10 65 l0 65 65 0 65 0 0 -39
c0 -31 -4 -41 -21 -46 -12 -4 -26 -2 -33 5 -8 9 -5 16 13 31 l23 19 -43 -1
c-24 -1 -36 -3 -27 -6 9 -2 18 -16 20 -31 3 -23 8 -27 36 -27 24 0 32 -4 32
-17 0 -10 5 -18 10 -18 6 0 10 28 10 65 0 58 2 65 20 65 18 0 20 -7 20 -65 0
-37 4 -65 10 -65 6 0 10 28 10 65 l0 65 55 0 c48 0 55 -2 55 -20 0 -15 -7 -20
-29 -20 -42 0 -59 -25 -41 -58 8 -14 21 -27 28 -30 10 -3 9 3 -3 22 -22 32
-13 56 20 56 23 0 25 -4 25 -40 0 -22 5 -40 10 -40 6 0 10 28 10 64 0 42 4 66
13 69 6 3 -23 6 -66 6 -64 1 -79 4 -84 19 -7 20 -33 52 -43 52 -3 0 -14 -6
-25 -14z m43 -18 c20 -20 14 -38 -13 -38 -20 0 -25 5 -25 25 0 27 18 33 38 13z
m-418 -119 c10 -18 9 -20 -7 -17 -10 2 -19 11 -21 21 -5 24 15 21 28 -4z"/>
<path d="M1624 2725 c-8 -20 4 -65 17 -65 15 0 28 43 17 63 -11 21 -27 22 -34
2z"/>
<path d="M2794 2686 c-3 -8 -1 -23 5 -34 8 -15 7 -23 -4 -32 -8 -7 -15 -18
-15 -24 0 -6 5 -3 11 7 5 9 16 17 23 17 20 0 59 -47 51 -61 -5 -8 -4 -10 4 -5
6 4 20 2 29 -6 15 -12 16 -11 4 4 -8 9 -10 23 -6 29 5 8 3 9 -5 4 -7 -4 -22 2
-37 16 -23 22 -23 23 -6 42 17 19 16 19 -6 6 -20 -12 -24 -12 -32 1 -6 8 -8
23 -6 33 5 20 -2 23 -10 3z"/>
<path d="M2103 2673 c20 -5 22 -25 5 -53 -11 -17 -10 -22 2 -30 12 -8 16 -2
18 35 3 40 6 45 27 45 23 0 24 -4 28 -67 l3 -68 2 68 c2 64 3 67 26 67 22 0
25 -5 28 -42 3 -40 5 -43 36 -46 24 -2 32 -8 32 -23 0 -10 5 -19 10 -19 6 0
10 28 10 64 0 42 4 66 13 69 6 3 -49 5 -123 5 -74 0 -127 -2 -117 -5z m205
-40 c-5 -65 -57 -56 -58 10 0 24 4 27 31 27 29 0 30 -2 27 -37z"/>
<path d="M2372 2658 c2 -13 11 -24 23 -26 20 -4 20 -4 0 11 -22 17 -15 33 10
24 18 -8 20 -43 3 -54 -7 -4 -21 -6 -30 -5 -10 2 -18 -2 -18 -7 0 -6 6 -11 13
-11 8 0 24 -11 37 -25 27 -28 42 -25 16 4 -16 17 -16 20 1 49 14 25 15 32 4
46 -7 9 -24 16 -38 16 -20 0 -24 -4 -21 -22z"/>
<path d="M2458 2673 c8 -3 12 -27 12 -69 0 -36 4 -64 10 -64 6 0 10 28 10 65
0 58 2 65 19 65 16 0 20 -8 23 -42 3 -40 5 -43 36 -46 24 -2 32 -8 32 -23 0
-10 5 -19 10 -19 6 0 10 28 10 64 0 42 4 66 13 69 6 3 -33 5 -88 5 -55 0 -94
-2 -87 -5z m140 -40 c-5 -65 -57 -56 -58 10 0 24 4 27 31 27 29 0 30 -2 27
-37z"/>
<path d="M922 2568 c-7 -7 -12 -25 -12 -41 0 -39 34 -34 38 7 4 34 -9 51 -26
34z"/>
<path d="M2780 2562 c0 -13 43 -26 62 -19 7 3 2 6 -12 6 -15 1 -31 6 -38 13
-9 9 -12 9 -12 0z"/>
<path d="M1640 2529 c0 -56 32 -91 45 -49 11 34 -4 80 -26 80 -15 0 -19 -7
-19 -31z"/>
<path d="M907 2384 c-14 -14 -7 -64 8 -64 8 0 16 6 16 13 3 34 -11 64 -24 51z"/>
<path d="M1686 2363 c-13 -13 -5 -61 13 -77 18 -17 19 -17 25 2 11 32 -20 93
-38 75z"/>
<path d="M1382 2318 c2 -30 8 -43 18 -43 8 0 16 8 18 18 6 30 -7 67 -24 67
-12 0 -14 -10 -12 -42z"/>
<path d="M1747 2176 c-7 -18 20 -56 39 -56 19 0 18 35 -2 54 -19 20 -30 20
-37 2z"/>
<path d="M907 2163 c-18 -17 -3 -83 18 -83 20 0 27 34 14 64 -12 26 -20 31
-32 19z"/>
<path d="M1423 2013 c7 -111 46 -233 132 -407 73 -149 128 -229 153 -224 30 6
24 36 -18 97 -68 100 -128 236 -192 434 -33 103 -65 187 -70 187 -7 0 -9 -31
-5 -87z"/>
<path d="M1840 1995 c0 -17 35 -55 50 -55 17 0 11 36 -8 53 -23 21 -42 22 -42
2z"/>
<path d="M1954 1849 c-3 -6 3 -21 15 -33 18 -17 23 -19 31 -7 11 18 -5 51 -25
51 -7 0 -17 -5 -21 -11z"/>
<path d="M2080 1722 c0 -10 5 -23 12 -30 16 -16 48 -15 48 1 0 16 -32 47 -48
47 -7 0 -12 -8 -12 -18z"/>
<path d="M2225 1631 c-7 -12 22 -41 41 -41 17 0 18 22 2 38 -14 14 -35 16 -43
3z"/>
<path d="M2397 1543 c-13 -12 16 -33 46 -33 29 0 30 0 12 20 -18 20 -46 26
-58 13z"/>
<path d="M2550 1472 c0 -12 34 -42 48 -42 18 0 25 20 12 35 -13 16 -60 21 -60
7z"/>
<path d="M2737 1437 c-7 -20 1 -27 30 -27 18 0 24 5 21 18 -4 21 -43 28 -51 9z"/>
<path d="M3192 1428 c-19 -19 -14 -38 9 -38 29 0 59 18 59 35 0 18 -51 20 -68
3z"/>
<path d="M2885 1421 c-11 -18 5 -31 36 -31 24 0 30 4 27 18 -4 19 -52 29 -63
13z"/>
<path d="M3032 1403 c2 -12 12 -18 28 -18 36 0 33 29 -3 33 -23 3 -28 0 -25
-15z"/>
</g>
</svg>
